
        <svg xmlns="http://www.w3.org/2000/svg" xmlns:xlink="http://www.w3.org/1999/xlink" version="1.1" width="3203.3898305084745" 
        height="976.2561786316146" viewBox="0 -10.169491525423728 3203.3898305084745 976.2561786316146">
			
			<g transform="scale(10.169491525423728) translate(10, 10)">
				<defs id="SvgjsDefs1039"><linearGradient id="SvgjsLinearGradient1044"><stop id="SvgjsStop1045" stop-color="#00ff8f" offset="0"></stop><stop id="SvgjsStop1046" stop-color="#00a1ff" offset="1"></stop></linearGradient><linearGradient id="SvgjsLinearGradient1047"><stop id="SvgjsStop1048" stop-color="#00ff8f" offset="0"></stop><stop id="SvgjsStop1049" stop-color="#00a1ff" offset="1"></stop></linearGradient></defs><g id="SvgjsG1040" featureKey="Ez5wPW-0" transform="matrix(0.001475767891226068,0,0,0.001475767891226068,-6.772298852836426,-7.773774620727652)" fill="url(#SvgjsLinearGradient1044)"><defs xmlns="http://www.w3.org/2000/svg"></defs><g xmlns="http://www.w3.org/2000/svg"><path class="fil0" d="M30863 4591c525,0 1026,116 1478,323 468,215 881,528 1213,913l1 -1c272,316 490,682 638,1081 143,385 221,801 221,1234 0,980 -397,1868 -1040,2510 -643,643 -1530,1040 -2510,1040 -980,0 -1868,-397 -2510,-1040 -643,-643 -1040,-1530 -1040,-2510 0,-346 51,-683 145,-1004 96,-327 240,-636 423,-920 322,-498 765,-911 1286,-1195 506,-276 1084,-432 1696,-432zm13345 10773c-21,-143 77,-276 220,-298 143,-21 276,77 298,220 67,439 185,720 376,900 191,182 476,281 870,350 142,25 238,160 213,303 -25,142 -160,238 -303,213 -494,-87 -862,-223 -1140,-487 -279,-265 -447,-640 -533,-1201zm6227 14350c85,-116 249,-142 365,-56 116,85 142,249 56,365 -263,358 -378,641 -372,904 7,264 138,536 368,864 82,118 54,281 -64,363 -118,82 -281,54 -363,-64 -287,-411 -452,-767 -462,-1150 -10,-385 137,-768 472,-1225zm-5743 14549c143,-21 276,77 298,220 21,143 -77,276 -220,298 -439,67 -720,185 -900,376 -182,191 -281,476 -350,870 -25,142 -160,238 -303,213 -142,-25 -238,-160 -213,-303 87,-494 223,-862 487,-1140 265,-279 641,-447 1201,-533zm-14350 6227c116,85 142,249 56,365 -85,116 -249,142 -365,56 -358,-263 -641,-378 -904,-372 -264,7 -536,138 -864,368 -118,82 -281,54 -363,-64 -82,-118 -54,-281 64,-363 411,-287 767,-452 1150,-462 385,-10 768,137 1225,472zm-14549 -5743c21,143 -77,276 -220,298 -143,21 -276,-77 -298,-220 -67,-439 -185,-720 -376,-900 -191,-182 -476,-281 -870,-350 -142,-25 -238,-160 -213,-303 25,-142 160,-238 303,-213 494,87 862,223 1140,487 279,265 447,641 533,1201zm-6227 -14350c-85,116 -249,142 -365,56 -116,-85 -142,-249 -56,-365 263,-358 378,-641 372,-904 -7,-264 -138,-536 -368,-864 -82,-118 -54,-281 64,-363 118,-82 281,-54 363,64 287,411 452,767 462,1150 10,385 -137,768 -472,1225zm5743 -14549c-143,21 -276,-77 -298,-220 -21,-143 77,-276 220,-298 439,-67 720,-185 900,-376 182,-191 281,-476 350,-870 25,-142 160,-238 303,-213 142,25 238,160 213,303 -87,494 -223,862 -487,1140 -265,279 -641,447 -1201,533zm14350 -6227c-116,-85 -142,-249 -56,-365 85,-116 249,-142 365,-56 358,263 641,378 904,372 264,-7 536,-138 864,-368 118,-82 281,-54 363,64 82,118 54,281 -64,363 -411,287 -767,452 -1150,462 -385,10 -768,-137 -1225,-472zm18918 3022c373,373 646,809 818,1274 179,482 249,995 211,1503 -31,414 -136,826 -314,1214 -172,376 -411,725 -716,1030 -693,693 -1602,1040 -2510,1040 -909,0 -1817,-347 -2510,-1040 -693,-693 -1040,-1602 -1040,-2510 0,-909 347,-1817 1040,-2510 244,-244 518,-446 813,-607 303,-165 623,-283 951,-353 578,-124 1182,-102 1753,66 552,163 1071,461 1505,894zm33 1565c-132,-355 -340,-687 -625,-973 -333,-333 -729,-561 -1148,-685 -436,-129 -899,-145 -1344,-50 -252,54 -496,143 -725,268 -220,120 -428,275 -620,466 -530,530 -794,1224 -794,1918 0,694 265,1388 794,1918 530,530 1224,794 1918,794 694,0 1388,-265 1918,-794 237,-237 420,-503 549,-785 135,-294 214,-609 238,-929 29,-387 -25,-780 -162,-1149zm-6506 9365c-3,15 -7,30 -12,45 -12,35 -26,64 -46,95 -37,57 -88,106 -152,140l-4544 2447c-9,5 -17,9 -26,13 -279,150 -395,294 -401,405 -1,19 3,36 11,50 12,20 30,36 54,48 106,54 279,39 482,-96 25,-16 50,-30 77,-40l3439 -1465c2539,-1082 3309,-2537 4366,-4925 -434,-78 -879,-212 -1312,-408 -571,-258 -1122,-622 -1600,-1101 -506,-506 -884,-1093 -1135,-1720 -182,-454 -296,-929 -342,-1410l-2359 962 -69 5719 3401 -632c227,-42 444,109 486,335 11,58 9,115 -4,168l0 0 -314 1370zm-5151 1991l4377 -2357 130 -570 -3275 609 0 0c-26,5 -53,7 -80,7 -230,-3 -415,-192 -412,-422l78 -6474c-11,-175 89,-345 261,-415l3168 -1292 0 1c51,-21 108,-32 167,-30 230,5 413,197 407,427 -14,577 88,1157 306,1702 209,522 526,1013 952,1439 405,405 870,713 1351,930 535,242 1088,374 1603,407l0 0c47,3 95,14 141,34 212,92 308,338 216,550l-4 8c-1265,2885 -2009,4580 -5026,5866l-3416 1455c-474,299 -950,294 -1289,120 -166,-85 -301,-209 -391,-359 -94,-156 -141,-337 -129,-531 23,-372 269,-783 845,-1093 7,-4 14,-8 21,-12zm18456 5299c0,525 -116,1026 -323,1478 -215,468 -528,881 -913,1213l1 1c-316,272 -682,490 -1081,638 -385,143 -801,221 -1234,221 -980,0 -1868,-397 -2510,-1040 -643,-643 -1040,-1530 -1040,-2510 0,-980 397,-1868 1040,-2510 643,-643 1530,-1040 2510,-1040 346,0 683,51 1004,145 327,96 636,240 920,423 498,322 911,765 1195,1286 276,506 432,1084 432,1696zm-1083 1131c157,-342 245,-725 245,-1131 0,-472 -119,-913 -327,-1296 -218,-401 -533,-740 -913,-985 -213,-138 -450,-247 -704,-322 -241,-71 -499,-109 -768,-109 -749,0 -1427,304 -1918,794 -491,491 -794,1169 -794,1918 0,749 304,1427 794,1918 491,491 1169,794 1918,794 332,0 650,-59 943,-168 305,-113 584,-279 825,-487l1 1 1 -1c295,-254 534,-569 698,-926zm-11208 2010c-101,72 -233,98 -361,60l-4944 -1483 -13 -4c-313,-97 -502,-77 -586,-3 -14,12 -23,27 -26,42 -5,22 -4,47 5,74 36,113 169,225 406,273 26,5 50,12 73,22l0 -1 3478 1400c2560,1030 4134,546 6570,-396 -252,-362 -471,-772 -638,-1217 -221,-587 -353,-1233 -353,-1909 0,-715 147,-1398 413,-2018 193,-451 449,-868 756,-1241l-2347 -987 -4093 3996 2850 1956c191,130 240,390 110,581 -37,55 -85,97 -139,128l-1159 727zm-5066 -2225l4764 1429 494 -310 -2744 -1884 0 0c-23,-15 -44,-33 -64,-54 -161,-165 -157,-430 8,-591l4656 -4545 0 0c117,-113 294,-152 453,-85l3132 1318c60,21 115,56 162,106 159,167 152,432 -15,591 -418,398 -756,880 -987,1418 -222,518 -345,1089 -345,1691 0,574 111,1120 298,1614 206,547 505,1032 846,1420l0 0c31,36 57,77 76,124 84,215 -22,458 -237,542l-8 3c-2934,1145 -4658,1818 -7701,593l-3449 -1388c-545,-125 -877,-465 -993,-826 -57,-176 -64,-358 -21,-529 44,-177 139,-339 285,-467 282,-249 753,-366 1386,-171l6 2zm9304 16798c-373,373 -809,646 -1274,818 -482,179 -995,249 -1503,211 -414,-31 -826,-136 -1214,-314 -376,-172 -725,-411 -1030,-716 -693,-693 -1040,-1602 -1040,-2510 0,-909 347,-1817 1040,-2510 693,-693 1602,-1040 2510,-1040 909,0 1817,347 2510,1040 244,244 446,518 607,813 165,303 283,623 353,951 124,578 102,1182 -66,1753 -163,552 -461,1071 -894,1505zm-1565 33c355,-132 687,-340 973,-625 333,-333 561,-729 685,-1148 129,-436 145,-899 50,-1344 -54,-252 -143,-496 -268,-725 -120,-220 -275,-428 -466,-620 -530,-530 -1224,-794 -1918,-794 -694,0 -1388,265 -1918,794 -530,530 -794,1224 -794,1918 0,694 265,1388 794,1918 237,237 503,420 785,549 294,135 609,214 929,238 387,29 780,-25 1149,-162zm-9365 -6506c-15,-3 -30,-7 -45,-12 -35,-12 -64,-26 -95,-46 -57,-37 -106,-88 -140,-152l-2447 -4544c-5,-9 -9,-17 -13,-26 -150,-279 -294,-395 -405,-401 -19,-1 -36,3 -50,11 -20,12 -36,30 -48,54 -54,106 -39,279 96,482 16,25 30,50 40,77l1465 3439c1082,2539 2537,3309 4925,4366 78,-434 212,-879 408,-1312 258,-571 622,-1122 1101,-1600 506,-506 1093,-884 1720,-1135 454,-182 929,-296 1410,-342l-962 -2359 -5719 -69 632 3401c42,227 -109,444 -335,486 -58,11 -115,9 -168,-4l0 0 -1370 -314zm-1991 -5151l2357 4377 570 130 -609 -3275 0 0c-5,-26 -7,-53 -7,-80 3,-230 192,-415 422,-412l6474 78c175,-11 345,89 415,261l1292 3168 -1 0c21,51 32,108 30,167 -5,230 -197,413 -427,407 -577,-14 -1157,88 -1702,306 -522,209 -1013,526 -1439,952 -405,405 -713,870 -930,1351 -242,535 -374,1088 -407,1603l0 0c-3,47 -14,95 -34,141 -92,211 -338,308 -550,216l-8 -4c-2885,-1265 -4580,-2009 -5866,-5026l-1455 -3416c-299,-474 -294,-950 -120,-1289 85,-166 209,-301 359,-391 156,-94 337,-141 531,-129 372,23 783,269 1093,845 4,7 8,14 12,21zm-5299 18456c-525,0 -1026,-116 -1478,-323 -468,-215 -881,-528 -1213,-913l-1 1c-272,-316 -490,-682 -638,-1081 -143,-385 -221,-801 -221,-1234 0,-980 397,-1868 1040,-2510 643,-643 1530,-1040 2510,-1040 980,0 1868,397 2510,1040 643,642 1040,1530 1040,2510 0,346 -51,683 -145,1004 -96,327 -240,636 -423,920 -322,498 -765,911 -1286,1195 -506,276 -1084,432 -1696,432zm-1131 -1083c342,157 725,245 1131,245 472,0 913,-119 1296,-327 401,-218 740,-533 985,-913 138,-213 247,-450 322,-704 71,-241 109,-499 109,-768 0,-749 -304,-1427 -794,-1918 -491,-491 -1169,-794 -1918,-794 -749,0 -1427,304 -1918,794 -491,491 -794,1169 -794,1918 0,332 59,650 168,943 113,305 279,584 487,825l-1 1 1 1c254,295 569,534 926,698zm-2010 -11208c-72,-101 -98,-233 -60,-361l1483 -4944 4 -13c97,-313 77,-502 3,-586 -12,-14 -27,-23 -42,-26 -22,-5 -47,-4 -74,5 -113,36 -225,169 -273,406 -5,26 -12,50 -22,73l1 0 -1400 3478c-1030,2560 -546,4134 396,6570 362,-252 772,-471 1217,-638 587,-221 1233,-353 1909,-353 715,0 1398,147 2018,413 451,193 868,449 1241,756l987 -2347 -3996 -4093 -1956 2850c-130,191 -390,240 -581,110 -55,-37 -97,-85 -128,-139l-727 -1159zm2225 -5066l-1429 4764 310 494 1884 -2744 0 0c15,-23 33,-44 54,-64 165,-161 430,-157 591,8l4545 4656 0 0c113,117 152,294 85,453l-1318 3132c-21,60 -56,115 -106,162 -167,159 -432,152 -591,-15 -398,-418 -880,-756 -1418,-987 -518,-222 -1089,-345 -1691,-345 -574,0 -1120,111 -1614,298 -547,206 -1032,505 -1420,846l0 0c-36,31 -77,57 -124,76 -215,84 -458,-22 -542,-237l-3 -8c-1145,-2934 -1818,-4658 -593,-7701l1388 -3449c125,-545 465,-877 826,-993 176,-57 358,-64 529,-21 177,44 339,139 467,285 249,282 366,753 171,1386l-2 6zm-16798 9304c-373,-373 -646,-809 -818,-1274 -179,-482 -249,-995 -211,-1503 31,-414 136,-826 314,-1214 172,-376 411,-725 716,-1030 693,-693 1602,-1040 2510,-1040 909,0 1817,347 2510,1040 693,693 1040,1602 1040,2510 0,909 -347,1817 -1040,2510 -244,244 -518,446 -813,607 -303,165 -623,283 -951,353 -578,124 -1182,102 -1753,-66 -552,-163 -1071,-461 -1505,-894zm-33 -1565c132,355 340,687 625,973 333,333 729,561 1148,685 436,129 899,145 1344,50 252,-54 496,-143 725,-268 220,-120 428,-275 620,-466 530,-530 794,-1224 794,-1918 0,-694 -265,-1388 -794,-1918 -530,-530 -1224,-794 -1918,-794 -694,0 -1388,265 -1918,794 -237,237 -420,503 -549,785 -135,294 -214,609 -238,929 -29,387 25,780 162,1149zm6506 -9365c3,-15 7,-30 12,-45 12,-35 26,-64 46,-95 37,-57 88,-106 152,-140l4544 -2447c9,-5 17,-9 26,-13 279,-150 395,-294 401,-405 1,-19 -3,-36 -11,-50 -12,-20 -30,-36 -54,-48 -106,-54 -279,-39 -482,96 -25,16 -50,30 -77,40l-3439 1465c-2539,1082 -3309,2536 -4366,4925 434,78 879,212 1312,408 571,258 1122,622 1600,1101 506,506 884,1093 1135,1720 182,454 296,929 342,1410l2359 -962 69 -5719 -3401 632c-227,42 -444,-109 -486,-335 -11,-58 -9,-115 4,-168l0 0 314 -1370zm5151 -1991l-4377 2357 -130 570 3275 -609 0 0c26,-5 53,-7 80,-7 230,3 415,192 412,422l-78 6474c11,175 -89,345 -261,415l-3168 1292 0 -1c-51,21 -108,32 -167,30 -230,-5 -413,-197 -407,-427 14,-577 -88,-1157 -306,-1702 -209,-522 -526,-1013 -952,-1439 -405,-405 -870,-713 -1351,-930 -535,-242 -1088,-374 -1603,-407l0 0c-47,-3 -95,-14 -141,-34 -211,-92 -308,-338 -216,-550l4 -8c1265,-2885 2009,-4580 5026,-5866l3416 -1455c474,-299 950,-294 1289,-120 166,85 301,209 391,359 94,156 141,337 129,531 -23,372 -269,783 -845,1093 -7,4 -14,8 -21,12zm-18456 -5299c0,-525 116,-1026 323,-1478 215,-468 528,-881 913,-1213l-1 -1c316,-272 682,-490 1081,-638 385,-143 801,-221 1234,-221 980,0 1868,397 2510,1040 643,643 1040,1530 1040,2510 0,980 -397,1868 -1040,2510 -642,643 -1530,1040 -2510,1040 -346,0 -683,-51 -1004,-145 -327,-96 -636,-240 -920,-423 -498,-322 -911,-765 -1195,-1286 -276,-506 -432,-1084 -432,-1696zm1083 -1131c-157,342 -245,725 -245,1131 0,472 119,913 327,1296 218,401 533,740 913,985 213,138 450,247 704,322 241,71 499,109 768,109 749,0 1427,-304 1918,-794 491,-491 794,-1169 794,-1918 0,-749 -304,-1427 -794,-1918 -491,-491 -1169,-794 -1918,-794 -332,0 -650,59 -943,168 -305,113 -584,279 -825,487l-1 -1 -1 1c-295,254 -534,569 -698,926zm11208 -2010c101,-72 233,-98 361,-60l4944 1483 13 4c313,97 502,77 586,3 14,-12 23,-27 26,-42 5,-22 4,-47 -5,-74 -36,-113 -169,-225 -406,-273 -26,-5 -50,-12 -73,-22l0 1 -3478 -1400c-2560,-1030 -4134,-546 -6570,396 252,362 471,772 638,1217 221,587 353,1233 353,1909 0,715 -147,1398 -413,2018 -193,451 -449,868 -756,1241l2347 987 4093 -3996 -2850 -1956c-191,-130 -240,-390 -110,-581 37,-55 85,-97 139,-128l1159 -727zm5066 2225l-4764 -1429 -494 310 2744 1884 0 0c23,15 44,33 64,54 161,165 157,430 -8,591l-4656 4545 0 0c-117,113 -294,152 -453,85l-3132 -1318c-60,-21 -115,-56 -162,-106 -159,-167 -152,-432 15,-591 418,-398 756,-880 987,-1418 222,-518 345,-1089 345,-1691 0,-574 -111,-1120 -298,-1614 -206,-547 -505,-1032 -846,-1420l0 0c-31,-36 -57,-77 -76,-124 -84,-215 22,-458 237,-542l8 -3c2934,-1145 4658,-1818 7701,-593l3449 1388c545,125 877,465 993,826 57,176 64,358 21,529 -44,177 -139,339 -285,467 -282,249 -753,366 -1386,171l-6 -2zm-9304 -16798c373,-373 809,-646 1274,-818 482,-179 995,-249 1503,-211 414,31 826,136 1214,314 376,172 725,411 1030,716 693,693 1040,1602 1040,2510 0,909 -347,1817 -1040,2510 -693,693 -1602,1040 -2510,1040 -909,0 -1817,-347 -2510,-1040 -244,-244 -446,-518 -607,-813 -165,-303 -283,-623 -353,-951 -124,-578 -102,-1182 66,-1753 163,-552 461,-1071 894,-1505zm1565 -33c-355,132 -687,340 -973,625 -333,333 -561,729 -685,1148 -129,436 -145,899 -50,1344 54,252 143,496 268,725 120,220 275,428 466,620 530,530 1224,794 1918,794 694,0 1388,-265 1918,-794 530,-530 794,-1224 794,-1918 0,-694 -265,-1388 -794,-1918 -237,-237 -503,-420 -785,-549 -294,-135 -609,-214 -929,-238 -387,-29 -780,25 -1149,162zm9365 6506c15,3 30,7 45,12 35,12 64,26 95,46 57,37 106,88 140,152l2447 4544c5,9 9,17 13,26 150,279 294,395 405,401 19,1 36,-3 50,-11 20,-12 36,-30 48,-54 54,-106 39,-279 -96,-482 -16,-25 -30,-50 -40,-77l-1465 -3439c-1082,-2539 -2536,-3309 -4925,-4366 -78,434 -212,879 -408,1312 -258,571 -622,1122 -1101,1600 -506,506 -1093,884 -1720,1135 -454,182 -929,296 -1410,342l962 2359 5719 69 -632 -3401c-42,-227 109,-444 335,-486 58,-11 115,-9 168,4l0 0 1370 314zm1991 5151l-2357 -4377 -570 -130 609 3275 0 0c5,26 7,53 7,80 -3,230 -192,415 -422,412l-6474 -78c-175,11 -345,-89 -415,-261l-1292 -3168 1 0c-21,-51 -32,-108 -30,-167 5,-230 197,-413 427,-407 577,14 1157,-88 1702,-306 522,-209 1013,-526 1439,-952 405,-405 713,-870 930,-1351 242,-535 374,-1088 407,-1603l0 0c3,-47 14,-95 34,-141 92,-212 338,-308 550,-216l8 4c2885,1265 4580,2009 5866,5026l1455 3416c299,474 294,950 120,1289 -85,166 -209,301 -359,391 -156,94 -337,141 -531,129 -372,-23 -783,-269 -1093,-845 -4,-7 -8,-14 -12,-21zm6430 -17373c-342,-157 -725,-245 -1131,-245 -472,0 -913,119 -1296,327 -401,218 -740,533 -985,913 -138,213 -247,450 -322,704 -71,241 -109,499 -109,768 0,749 304,1427 794,1918 491,491 1169,794 1918,794 749,0 1427,-304 1918,-794 491,-491 794,-1169 794,-1918 0,-332 -59,-650 -168,-943 -113,-305 -279,-584 -487,-825l1 -1 -1 -1c-254,-295 -569,-534 -926,-698zm2010 11208c72,101 98,233 60,361l-1483 4944 -4 13c-97,313 -77,502 -3,586 12,14 27,23 42,26 22,5 47,4 74,-5 113,-36 225,-169 273,-406 5,-26 12,-50 22,-73l-1 0 1400 -3478c1030,-2560 546,-4134 -396,-6570 -362,252 -772,471 -1217,638 -587,221 -1233,353 -1909,353 -715,0 -1398,-147 -2018,-413 -451,-193 -868,-449 -1241,-756l-987 2347 3996 4093 1956 -2849c130,-191 390,-240 581,-110 55,37 97,85 128,139l727 1159zm-2225 5066l1429 -4764 -310 -494 -1884 2744 0 0c-15,23 -33,44 -54,64 -165,161 -430,157 -591,-8l-4545 -4656 0 0c-113,-117 -152,-294 -85,-453l1318 -3132c21,-60 56,-115 106,-162 167,-159 432,-152 591,15 398,418 880,756 1418,987 518,222 1089,345 1691,345 574,0 1120,-111 1614,-298 547,-206 1032,-505 1420,-846l0 0c36,-31 77,-57 124,-76 215,-84 458,22 542,237l3 8c1145,2934 1818,4658 593,7701l-1388 3449c-125,545 -465,877 -826,993 -176,57 -358,64 -529,21 -177,-44 -339,-139 -467,-285 -249,-282 -366,-753 -171,-1386l2 -6z" style="fill: url(#SvgjsLinearGradient1044); fill-rule: nonzero;"></path></g></g><g id="SvgjsG1041" featureKey="ujU5uU-0" transform="matrix(4.1169203882604695,0,0,4.1169203882604695,92.36516953808085,-14.737336587578312)" fill="url(#SvgjsLinearGradient1047)"><path d="M10.88 5.6 l0 2.68 l-6.4 8.84 l6.4 0 l0 2.88 l-10.24 0 l0 -2.68 l6.48 -8.84 l-6.4 0 l0 -2.88 l10.16 0 z M19.72 20.32 c-4.32 0 -7.8 -3.36 -7.8 -7.52 s3.48 -7.52 7.8 -7.52 c4.3 0 7.8 3.36 7.8 7.52 s-3.5 7.52 -7.8 7.52 z M24.32 12.8 c0 -2.56 -2.06 -4.64 -4.6 -4.64 s-4.6 2.08 -4.6 4.64 s2.06 4.64 4.6 4.64 s4.6 -2.08 4.6 -4.64 z M32.12 5.6 l0 14.4 l-3.2 0 l0 -14.4 l3.2 0 z M49.22 17.6 l0 2.4 l-8.04 0 c-4.24 0 -7.66 -3.3 -7.66 -7.36 s3.42 -7.36 7.66 -7.36 c4.22 0 7.66 3.3 7.66 7.36 c0 1.92 -0.76 3.66 -2 4.96 l2.38 0 z M41.18 17.12 c2.46 0 4.46 -2 4.46 -4.48 s-2 -4.48 -4.46 -4.48 s-4.46 2 -4.46 4.48 s2 4.48 4.46 4.48 z"></path></g>
			</g>
		</svg>
	